<svg width="204" height="175" viewBox="0 0 204 175" fill="none" xmlns="http://www.w3.org/2000/svg">
<path d="M158.5 0.5C160.282 0.500001 171.393 0.469673 182.26 6.50684C187.82 9.59576 193.362 14.2974 197.473 21.3438C201.58 28.3847 204 37.3244 204 48.5C204 67.9084 197.382 79.6603 189.065 86.3809C197.439 93.8291 204 106.817 204 128.5C204 139.482 201.306 148.253 196.851 155.114C192.421 161.935 186.556 166.403 180.903 169.305C175.287 172.188 169.763 173.59 165.709 174.284C163.663 174.634 161.94 174.812 160.696 174.903C160.073 174.949 159.566 174.974 159.194 174.986C159.009 174.993 158.857 174.996 158.74 174.998C158.682 174.999 158.633 175 158.593 175H158.509C158.504 175 158.5 175 158.5 167V175C133.687 175 119.279 166.924 111.624 155.607C104.374 144.889 104.5 132.986 104.5 128.5V22.501C104.502 22.5003 104.632 22.5 112.5 22.5C120.368 22.5 120.498 22.5003 120.5 22.501V128.5C120.5 133.014 120.626 140.361 124.876 146.643C128.72 152.324 137.307 158.995 158.479 158.999C158.506 158.999 158.562 158.998 158.647 158.995C158.825 158.989 159.124 158.976 159.526 158.946C160.333 158.887 161.54 158.764 163.01 158.513C165.987 158.003 169.839 156.999 173.597 155.07C177.319 153.16 180.829 150.408 183.431 146.401C186.007 142.434 188 136.768 188 128.5C188 109.062 181.922 101.038 177.553 97.5986C175.207 95.7526 172.884 94.8473 171.188 94.4023C170.609 94.2503 170.112 94.1555 169.726 94.0957C168.868 94.3244 167.677 94.634 166.259 94.9746C163.364 95.6697 159.414 96.5258 155.391 97.1055C151.543 97.6597 146.917 98.0728 142.969 97.5039C141.033 97.225 138.409 96.6011 136.092 94.9316C133.368 92.9692 131.5 89.8369 131.5 86C131.5 82.1631 133.368 79.0308 136.092 77.0684C138.409 75.3989 141.033 74.775 142.969 74.4961C146.917 73.9272 151.543 74.3403 155.391 74.8945C159.414 75.4742 163.364 76.3303 166.259 77.0254C167.707 77.3732 168.92 77.6869 169.78 77.917C170.206 77.8614 170.763 77.771 171.415 77.6201C173.209 77.2049 175.584 76.3749 177.937 74.7412C182.205 71.777 188 65.0564 188 48.5C188 39.6758 186.108 33.6153 183.652 29.4062C181.2 25.2028 177.93 22.4042 174.49 20.4932C167.357 16.5305 159.718 16.5 158.5 16.5H50.001C50.0005 16.5 50 16.5 50 8.5C50 0.50001 50.0005 0.5 50.001 0.5H158.5ZM98.5 22.001V128C98.5 132.486 98.6264 144.389 91.376 155.107C83.7208 166.424 69.3128 174.5 44.5 174.5V166.5C44.5 174.344 44.4972 174.497 44.4941 174.5H44.4277C44.3946 174.5 44.3523 174.5 44.3018 174.499C44.2005 174.498 44.0645 174.495 43.8965 174.491C43.5607 174.483 43.0949 174.467 42.5176 174.438C41.3649 174.378 39.7544 174.26 37.8359 174.028C34.0404 173.569 28.8376 172.637 23.5205 170.707C18.2446 168.792 12.3992 165.729 7.81055 160.731C3.06069 155.559 1.79581e-06 148.669 0 140H16C16 144.581 17.5019 147.629 19.5957 149.909C21.8507 152.365 25.1306 154.271 28.9795 155.668C32.7873 157.05 36.7096 157.775 39.7578 158.144C41.2611 158.325 42.5023 158.415 43.3457 158.459C43.766 158.481 44.0844 158.491 44.2832 158.496C44.3825 158.498 44.4524 158.5 44.4893 158.5C44.4932 158.5 44.4968 158.5 44.5 158.5C65.6872 158.5 74.2792 151.826 78.124 146.143C82.3735 139.861 82.5 132.514 82.5 128V22.001C82.5022 22.0003 82.6333 22 90.5 22C98.3667 22 98.4978 22.0003 98.5 22.001Z" fill="black"/>
</svg>
